<svg width="207" height="13" viewBox="0 0 207 13" fill="none" xmlns="http://www.w3.org/2000/svg">
<path d="M-2.93283e-05 10.1818L3.59025 0.224393H5.21709L8.80737 10.1818H7.48906L6.49332 7.34885H2.31402L1.31828 10.1818H-2.93283e-05ZM2.72073 6.17079H6.08661L4.40367 1.27623L2.72073 6.17079ZM11.2538 10.1818C10.8237 10.1818 10.4731 10.0696 10.2019 9.84521C9.93079 9.62082 9.79522 9.26553 9.79522 8.77935V0.224393H10.9733V8.68118C10.9733 8.83077 11.0107 8.94764 11.0855 9.03179C11.1696 9.10659 11.2865 9.14398 11.4361 9.14398H12.0812V10.1818H11.2538ZM13.3391 10.1818V2.74881H14.377L14.4331 4.62809L14.3209 4.58602C14.4144 3.95024 14.6154 3.48743 14.9239 3.19759C15.2418 2.8984 15.6625 2.74881 16.1861 2.74881H16.9154V3.87077H16.2001C15.8262 3.87077 15.5129 3.94089 15.2605 4.08113C15.0174 4.21203 14.8304 4.41305 14.6995 4.68419C14.578 4.94598 14.5172 5.28257 14.5172 5.69395V10.1818H13.3391ZM20.8544 10.3501C20.1532 10.3501 19.5455 10.1911 19.0312 9.87326C18.5264 9.55537 18.1337 9.10659 17.8532 8.52691C17.582 7.93788 17.4465 7.25067 17.4465 6.4653C17.4465 5.67993 17.582 4.9974 17.8532 4.41772C18.1337 3.83804 18.5217 3.38926 19.0172 3.07137C19.5221 2.74413 20.1158 2.58051 20.7983 2.58051C21.4435 2.58051 22.0138 2.73478 22.5093 3.04332C23.0048 3.34251 23.3882 3.78194 23.6593 4.36162C23.9398 4.9413 24.0801 5.64721 24.0801 6.47933V6.82994H18.6806C18.7274 7.62466 18.9377 8.22304 19.3117 8.62508C19.6951 9.02711 20.2093 9.22813 20.8544 9.22813C21.3406 9.22813 21.738 9.11594 22.0465 8.89154C22.3644 8.6578 22.5841 8.35394 22.7057 7.97995L23.9679 8.07812C23.7715 8.74195 23.3975 9.2889 22.8459 9.71899C22.3036 10.1397 21.6398 10.3501 20.8544 10.3501ZM18.6806 5.79213H22.7898C22.7337 5.0722 22.5233 4.54394 22.1587 4.20736C21.8034 3.87077 21.35 3.70247 20.7983 3.70247C20.228 3.70247 19.7558 3.88012 19.3818 4.2354C19.0172 4.58134 18.7835 5.10025 18.6806 5.79213ZM27.7328 10.3501C26.9661 10.3501 26.3537 10.1724 25.8956 9.81716C25.4468 9.46187 25.2224 8.96634 25.2224 8.33056C25.2224 7.69478 25.4094 7.19458 25.7834 6.82994C26.1574 6.4653 26.7511 6.20819 27.5645 6.05859L30.2011 5.56773C30.2011 4.9413 30.0515 4.47382 29.7523 4.16528C29.4625 3.85674 29.023 3.70247 28.434 3.70247C27.9198 3.70247 27.5131 3.81934 27.2139 4.05309C26.9147 4.27748 26.709 4.60472 26.5968 5.0348L25.3486 4.93663C25.4889 4.2354 25.8255 3.66975 26.3584 3.23966C26.9007 2.80023 27.5925 2.58051 28.434 2.58051C29.3877 2.58051 30.117 2.85165 30.6218 3.39393C31.1267 3.92686 31.3792 4.66549 31.3792 5.60981V8.68118C31.3792 8.84947 31.4072 8.97102 31.4633 9.04581C31.5288 9.11126 31.6316 9.14398 31.7718 9.14398H32.0664V10.1818C32.029 10.1911 31.9682 10.1958 31.884 10.1958C31.7999 10.2052 31.7111 10.2098 31.6176 10.2098C31.281 10.2098 31.0052 10.1584 30.7901 10.0556C30.5844 9.94338 30.4348 9.77509 30.3413 9.5507C30.2479 9.31695 30.2011 9.01309 30.2011 8.6391L30.3413 8.66715C30.2759 8.98504 30.117 9.27488 29.8645 9.53667C29.6121 9.78911 29.2989 9.99013 28.9249 10.1397C28.5509 10.28 28.1535 10.3501 27.7328 10.3501ZM27.845 9.31228C28.3405 9.31228 28.7613 9.21878 29.1072 9.03179C29.4625 8.83544 29.7336 8.57365 29.9206 8.24642C30.1076 7.90983 30.2011 7.53584 30.2011 7.12445V6.59152L27.7889 7.04031C27.284 7.1338 26.9334 7.27872 26.737 7.47507C26.5501 7.66206 26.4566 7.90983 26.4566 8.21837C26.4566 8.5643 26.5781 8.83544 26.8212 9.03179C27.0736 9.21878 27.4149 9.31228 27.845 9.31228ZM35.8659 10.3501C35.2208 10.3501 34.6598 10.1911 34.183 9.87326C33.7155 9.55537 33.3555 9.10659 33.1031 8.52691C32.8506 7.94723 32.7244 7.26002 32.7244 6.4653C32.7244 5.67058 32.8506 4.98338 33.1031 4.4037C33.3555 3.82402 33.7155 3.37523 34.183 3.05735C34.6598 2.73946 35.2208 2.58051 35.8659 2.58051C36.3614 2.58051 36.8149 2.68803 37.2263 2.90308C37.6377 3.10877 37.9462 3.40328 38.1519 3.78662V0.224393H39.33V10.1818H38.2641L38.222 9.05984C38.0163 9.46187 37.7031 9.77976 37.2824 10.0135C36.8617 10.2379 36.3895 10.3501 35.8659 10.3501ZM36.1043 9.22813C36.5438 9.22813 36.9131 9.11594 37.2123 8.89154C37.5208 8.66715 37.7545 8.34926 37.9135 7.93788C38.0724 7.51714 38.1519 7.02628 38.1519 6.4653C38.1519 5.88562 38.0724 5.39009 37.9135 4.9787C37.7545 4.56732 37.5208 4.2541 37.2123 4.03906C36.9131 3.81467 36.5438 3.70247 36.1043 3.70247C35.4498 3.70247 34.9263 3.95024 34.5336 4.44577C34.1502 4.93196 33.9586 5.60513 33.9586 6.4653C33.9586 7.31612 34.1502 7.9893 34.5336 8.48483C34.9263 8.98036 35.4498 9.22813 36.1043 9.22813ZM41.6154 12.2855V11.2477H42.4709C42.7327 11.2477 42.9244 11.2056 43.0459 11.1214C43.1768 11.0466 43.275 10.9204 43.3404 10.7428L43.6069 10.0416H43.2002L40.4794 2.74881H41.7697L43.9856 8.94764L46.1033 2.74881H47.3935L44.3782 11.1214C44.238 11.5235 44.0276 11.818 43.7471 12.005C43.4666 12.192 43.0786 12.2855 42.5831 12.2855H41.6154ZM52.0512 10.1818V0.224393H53.2292V4.38967L53.089 4.36162C53.1825 3.95024 53.3414 3.61365 53.5658 3.35186C53.7902 3.09007 54.066 2.8984 54.3933 2.77686C54.7205 2.64596 55.0805 2.58051 55.4732 2.58051C56.0061 2.58051 56.4549 2.70206 56.8195 2.94515C57.1935 3.17889 57.474 3.5108 57.661 3.94089C57.8573 4.36163 57.9555 4.84781 57.9555 5.39944V10.1818H56.7774V5.73603C56.7774 5.0161 56.6466 4.48317 56.3848 4.13723C56.1323 3.79129 55.7443 3.61833 55.2207 3.61833C54.6223 3.61833 54.1408 3.80064 53.7762 4.16528C53.4116 4.52992 53.2292 5.05818 53.2292 5.75005V10.1818H52.0512ZM61.9285 10.3501C61.1618 10.3501 60.5494 10.1724 60.0913 9.81716C59.6425 9.46187 59.4181 8.96634 59.4181 8.33056C59.4181 7.69478 59.6051 7.19458 59.9791 6.82994C60.3531 6.4653 60.9468 6.20819 61.7602 6.05859L64.3968 5.56773C64.3968 4.9413 64.2472 4.47382 63.948 4.16528C63.6582 3.85674 63.2188 3.70247 62.6297 3.70247C62.1155 3.70247 61.7088 3.81934 61.4096 4.05309C61.1104 4.27748 60.9047 4.60472 60.7925 5.0348L59.5443 4.93663C59.6846 4.2354 60.0212 3.66975 60.5541 3.23966C61.0964 2.80023 61.7883 2.58051 62.6297 2.58051C63.5834 2.58051 64.3127 2.85165 64.8175 3.39393C65.3224 3.92686 65.5749 4.66549 65.5749 5.60981V8.68118C65.5749 8.84947 65.6029 8.97102 65.659 9.04581C65.7245 9.11126 65.8273 9.14398 65.9676 9.14398H66.2621V10.1818C66.2247 10.1911 66.1639 10.1958 66.0798 10.1958C65.9956 10.2052 65.9068 10.2098 65.8133 10.2098C65.4767 10.2098 65.2009 10.1584 64.9858 10.0556C64.7802 9.94338 64.6306 9.77509 64.5371 9.5507C64.4436 9.31695 64.3968 9.01309 64.3968 8.6391L64.5371 8.66715C64.4716 8.98504 64.3127 9.27488 64.0602 9.53667C63.8078 9.78911 63.4946 9.99013 63.1206 10.1397C62.7466 10.28 62.3492 10.3501 61.9285 10.3501ZM62.0407 9.31228C62.5362 9.31228 62.957 9.21878 63.3029 9.03179C63.6582 8.83544 63.9293 8.57365 64.1163 8.24642C64.3033 7.90983 64.3968 7.53584 64.3968 7.12445V6.59152L61.9846 7.04031C61.4797 7.1338 61.1291 7.27872 60.9328 7.47507C60.7458 7.66206 60.6523 7.90983 60.6523 8.21837C60.6523 8.5643 60.7738 8.83544 61.0169 9.03179C61.2693 9.21878 61.6106 9.31228 62.0407 9.31228ZM69.0581 10.1818L66.3514 2.74881H67.6416L69.8014 8.97569L71.9612 2.74881H73.2514L70.5447 10.1818H69.0581ZM77.0768 10.3501C76.3756 10.3501 75.7679 10.1911 75.2536 9.87326C74.7488 9.55537 74.3561 9.10659 74.0756 8.52691C73.8044 7.93788 73.6689 7.25067 73.6689 6.4653C73.6689 5.67993 73.8044 4.9974 74.0756 4.41772C74.3561 3.83804 74.7441 3.38926 75.2396 3.07137C75.7445 2.74413 76.3382 2.58051 77.0207 2.58051C77.6659 2.58051 78.2362 2.73478 78.7317 3.04332C79.2273 3.34251 79.6106 3.78194 79.8817 4.36162C80.1622 4.9413 80.3025 5.64721 80.3025 6.47933V6.82994H74.903C74.9498 7.62466 75.1602 8.22304 75.5341 8.62508C75.9175 9.02711 76.4317 9.22813 77.0768 9.22813C77.563 9.22813 77.9604 9.11594 78.2689 8.89154C78.5868 8.6578 78.8065 8.35394 78.9281 7.97995L80.1903 8.07812C79.9939 8.74195 79.6199 9.2889 79.0683 9.71899C78.526 10.1397 77.8622 10.3501 77.0768 10.3501ZM74.903 5.79213H79.0122C78.9561 5.0722 78.7458 4.54394 78.3811 4.20736C78.0258 3.87077 77.5724 3.70247 77.0207 3.70247C76.4504 3.70247 75.9782 3.88012 75.6043 4.2354C75.2396 4.58134 75.0059 5.10025 74.903 5.79213ZM87.2663 10.3501C86.4996 10.3501 85.8872 10.1724 85.4291 9.81716C84.9803 9.46187 84.7559 8.96634 84.7559 8.33056C84.7559 7.69478 84.9429 7.19458 85.3169 6.82994C85.6909 6.4653 86.2846 6.20819 87.098 6.05859L89.7346 5.56773C89.7346 4.9413 89.585 4.47382 89.2858 4.16528C88.996 3.85674 88.5566 3.70247 87.9675 3.70247C87.4533 3.70247 87.0466 3.81934 86.7474 4.05309C86.4482 4.27748 86.2425 4.60472 86.1303 5.0348L84.8821 4.93663C85.0224 4.2354 85.359 3.66975 85.8919 3.23966C86.4342 2.80023 87.1261 2.58051 87.9675 2.58051C88.9212 2.58051 89.6505 2.85165 90.1554 3.39393C90.6602 3.92686 90.9127 4.66549 90.9127 5.60981V8.68118C90.9127 8.84947 90.9407 8.97102 90.9968 9.04581C91.0623 9.11126 91.1651 9.14398 91.3054 9.14398H91.5999V10.1818C91.5625 10.1911 91.5017 10.1958 91.4176 10.1958C91.3334 10.2052 91.2446 10.2098 91.1511 10.2098C90.8145 10.2098 90.5387 10.1584 90.3236 10.0556C90.118 9.94338 89.9684 9.77509 89.8749 9.5507C89.7814 9.31695 89.7346 9.01309 89.7346 8.6391L89.8749 8.66715C89.8094 8.98504 89.6505 9.27488 89.398 9.53667C89.1456 9.78911 88.8324 9.99013 88.4584 10.1397C88.0844 10.28 87.687 10.3501 87.2663 10.3501ZM87.3785 9.31228C87.874 9.31228 88.2948 9.21878 88.6407 9.03179C88.996 8.83544 89.2671 8.57365 89.4541 8.24642C89.6411 7.90983 89.7346 7.53584 89.7346 7.12445V6.59152L87.3224 7.04031C86.8175 7.1338 86.4669 7.27872 86.2706 7.47507C86.0836 7.66206 85.9901 7.90983 85.9901 8.21837C85.9901 8.5643 86.1116 8.83544 86.3547 9.03179C86.6071 9.21878 86.9484 9.31228 87.3785 9.31228ZM92.7902 10.1818V2.74881H93.8701L93.9122 4.64212L93.7719 4.51589C93.8654 4.07646 94.029 3.7165 94.2628 3.43601C94.4965 3.14617 94.777 2.93112 95.1043 2.79088C95.4408 2.65063 95.8008 2.58051 96.1841 2.58051C96.7545 2.58051 97.222 2.70673 97.5866 2.95917C97.9606 3.21161 98.2364 3.55288 98.414 3.98296C98.601 4.4037 98.6945 4.87586 98.6945 5.39944V10.1818H97.5165V5.73603C97.5165 5.27789 97.4604 4.89456 97.3482 4.58602C97.2453 4.26813 97.077 4.02971 96.8433 3.87077C96.6095 3.70247 96.3057 3.61833 95.9317 3.61833C95.3614 3.61833 94.8892 3.80064 94.5152 4.16528C94.1506 4.52057 93.9683 5.04415 93.9683 5.73603V10.1818H92.7902ZM106.17 10.3501C105.404 10.3501 104.791 10.1724 104.333 9.81716C103.884 9.46187 103.66 8.96634 103.66 8.33056C103.66 7.69478 103.847 7.19458 104.221 6.82994C104.595 6.4653 105.189 6.20819 106.002 6.05859L108.639 5.56773C108.639 4.9413 108.489 4.47382 108.19 4.16528C107.9 3.85674 107.461 3.70247 106.872 3.70247C106.357 3.70247 105.951 3.81934 105.651 4.05309C105.352 4.27748 105.147 4.60472 105.034 5.0348L103.786 4.93663C103.926 4.2354 104.263 3.66975 104.796 3.23966C105.338 2.80023 106.03 2.58051 106.872 2.58051C107.825 2.58051 108.555 2.85165 109.059 3.39393C109.564 3.92686 109.817 4.66549 109.817 5.60981V8.68118C109.817 8.84947 109.845 8.97102 109.901 9.04581C109.966 9.11126 110.069 9.14398 110.209 9.14398H110.504V10.1818C110.467 10.1911 110.406 10.1958 110.322 10.1958C110.237 10.2052 110.149 10.2098 110.055 10.2098C109.719 10.2098 109.443 10.1584 109.228 10.0556C109.022 9.94338 108.872 9.77509 108.779 9.5507C108.685 9.31695 108.639 9.01309 108.639 8.6391L108.779 8.66715C108.713 8.98504 108.555 9.27488 108.302 9.53667C108.05 9.78911 107.736 9.99013 107.362 10.1397C106.988 10.28 106.591 10.3501 106.17 10.3501ZM106.283 9.31228C106.778 9.31228 107.199 9.21878 107.545 9.03179C107.9 8.83544 108.171 8.57365 108.358 8.24642C108.545 7.90983 108.639 7.53584 108.639 7.12445V6.59152L106.226 7.04031C105.722 7.1338 105.371 7.27872 105.175 7.47507C104.988 7.66206 104.894 7.90983 104.894 8.21837C104.894 8.5643 105.016 8.83544 105.259 9.03179C105.511 9.21878 105.852 9.31228 106.283 9.31228ZM114.57 10.3501C113.878 10.3501 113.275 10.1911 112.761 9.87326C112.256 9.55537 111.863 9.10659 111.583 8.52691C111.302 7.93788 111.162 7.25067 111.162 6.4653C111.162 5.67993 111.302 4.9974 111.583 4.41772C111.863 3.83804 112.256 3.38926 112.761 3.07137C113.275 2.74413 113.878 2.58051 114.57 2.58051C115.14 2.58051 115.645 2.68336 116.085 2.88905C116.533 3.08539 116.898 3.37523 117.179 3.75857C117.459 4.14191 117.641 4.60939 117.725 5.16102L116.491 5.24517C116.407 4.74964 116.192 4.37097 115.846 4.10918C115.5 3.83804 115.075 3.70247 114.57 3.70247C113.887 3.70247 113.354 3.95024 112.971 4.44577C112.588 4.93196 112.396 5.60513 112.396 6.4653C112.396 7.32547 112.588 8.00332 112.971 8.49886C113.354 8.98504 113.887 9.22813 114.57 9.22813C115.075 9.22813 115.5 9.08789 115.846 8.8074C116.192 8.52691 116.407 8.10617 116.491 7.54519L117.725 7.62934C117.641 8.18097 117.459 8.66248 117.179 9.07386C116.898 9.4759 116.533 9.78911 116.085 10.0135C115.645 10.2379 115.14 10.3501 114.57 10.3501ZM121.949 10.3501C121.257 10.3501 120.654 10.1911 120.14 9.87326C119.635 9.55537 119.242 9.10659 118.961 8.52691C118.681 7.93788 118.541 7.25067 118.541 6.4653C118.541 5.67993 118.681 4.9974 118.961 4.41772C119.242 3.83804 119.635 3.38926 120.14 3.07137C120.654 2.74413 121.257 2.58051 121.949 2.58051C122.519 2.58051 123.024 2.68336 123.463 2.88905C123.912 3.08539 124.277 3.37523 124.557 3.75857C124.838 4.14191 125.02 4.60939 125.104 5.16102L123.87 5.24517C123.786 4.74964 123.571 4.37097 123.225 4.10918C122.879 3.83804 122.454 3.70247 121.949 3.70247C121.266 3.70247 120.733 3.95024 120.35 4.44577C119.967 4.93196 119.775 5.60513 119.775 6.4653C119.775 7.32547 119.967 8.00332 120.35 8.49886C120.733 8.98504 121.266 9.22813 121.949 9.22813C122.454 9.22813 122.879 9.08789 123.225 8.8074C123.571 8.52691 123.786 8.10617 123.87 7.54519L125.104 7.62934C125.02 8.18097 124.838 8.66248 124.557 9.07386C124.277 9.4759 123.912 9.78911 123.463 10.0135C123.024 10.2379 122.519 10.3501 121.949 10.3501ZM129.327 10.3501C128.645 10.3501 128.047 10.1911 127.532 9.87326C127.018 9.55537 126.621 9.10659 126.34 8.52691C126.06 7.93788 125.919 7.25067 125.919 6.4653C125.919 5.67058 126.06 4.98338 126.34 4.4037C126.621 3.82402 127.018 3.37523 127.532 3.05735C128.047 2.73946 128.645 2.58051 129.327 2.58051C130.01 2.58051 130.604 2.73946 131.109 3.05735C131.623 3.37523 132.02 3.82402 132.301 4.4037C132.581 4.98338 132.721 5.67058 132.721 6.4653C132.721 7.25067 132.581 7.93788 132.301 8.52691C132.02 9.10659 131.623 9.55537 131.109 9.87326C130.604 10.1911 130.01 10.3501 129.327 10.3501ZM129.327 9.22813C130.01 9.22813 130.538 8.98504 130.912 8.49886C131.296 8.00332 131.487 7.32547 131.487 6.4653C131.487 5.60513 131.296 4.93196 130.912 4.44577C130.538 3.95024 130.01 3.70247 129.327 3.70247C128.645 3.70247 128.112 3.95024 127.729 4.44577C127.345 4.93196 127.154 5.60513 127.154 6.4653C127.154 7.32547 127.345 8.00332 127.729 8.49886C128.112 8.98504 128.645 9.22813 129.327 9.22813ZM136.627 10.3501C135.888 10.3501 135.295 10.1023 134.846 9.60679C134.406 9.10191 134.187 8.41003 134.187 7.53117V2.74881H135.365V7.2086C135.365 7.92853 135.491 8.46146 135.743 8.8074C136.005 9.14398 136.402 9.31228 136.935 9.31228C137.524 9.31228 137.987 9.12528 138.324 8.7513C138.66 8.36796 138.829 7.84438 138.829 7.18055V2.74881H140.007V10.1818H138.885V8.34459L139.067 8.44276C138.918 9.05049 138.632 9.52265 138.212 9.85923C137.791 10.1865 137.263 10.3501 136.627 10.3501ZM142.113 10.1818V2.74881H143.193L143.235 4.64212L143.095 4.51589C143.188 4.07646 143.352 3.7165 143.586 3.43601C143.82 3.14617 144.1 2.93112 144.427 2.79088C144.764 2.65063 145.124 2.58051 145.507 2.58051C146.077 2.58051 146.545 2.70673 146.91 2.95917C147.284 3.21161 147.559 3.55288 147.737 3.98296C147.924 4.4037 148.018 4.87586 148.018 5.39944V10.1818H146.839V5.73603C146.839 5.27789 146.783 4.89456 146.671 4.58602C146.568 4.26813 146.4 4.02971 146.166 3.87077C145.933 3.70247 145.629 3.61833 145.255 3.61833C144.684 3.61833 144.212 3.80064 143.838 4.16528C143.474 4.52057 143.291 5.04415 143.291 5.73603V10.1818H142.113ZM152.281 10.1818C151.608 10.1818 151.108 10.0275 150.781 9.71899C150.463 9.41045 150.304 8.92894 150.304 8.27446V1.00977H151.482V8.24642C151.482 8.583 151.557 8.81675 151.706 8.94764C151.856 9.07854 152.085 9.14398 152.393 9.14398H153.459V10.1818H152.281ZM149.21 3.78662V2.74881H153.459V3.78662H149.21ZM157.072 7.36287C157.072 6.68969 157.175 6.15676 157.381 5.76408C157.596 5.36204 157.946 5.01143 158.432 4.71224C158.797 4.48785 159.073 4.2915 159.26 4.12321C159.456 3.94556 159.587 3.76325 159.653 3.57625C159.718 3.37991 159.751 3.14149 159.751 2.861C159.751 2.37482 159.587 1.97278 159.26 1.65489C158.942 1.337 158.498 1.17806 157.927 1.17806C157.236 1.17806 156.703 1.3557 156.329 1.71099C155.964 2.06628 155.744 2.58051 155.67 3.25369L154.407 3.16954C154.463 2.55246 154.641 2.00551 154.94 1.52867C155.239 1.05184 155.642 0.677852 156.146 0.406712C156.651 0.135572 157.245 1.3136e-06 157.927 1.3136e-06C158.535 1.3136e-06 159.068 0.121547 159.526 0.364638C159.994 0.60773 160.358 0.944318 160.62 1.3744C160.882 1.80449 161.013 2.30002 161.013 2.861C161.013 3.25369 160.947 3.59495 160.817 3.88479C160.695 4.17463 160.503 4.4411 160.242 4.68419C159.98 4.92728 159.648 5.17972 159.246 5.44151C158.872 5.6846 158.615 5.94172 158.474 6.21286C158.344 6.484 158.278 6.86734 158.278 7.36287H157.072ZM156.848 10.1818V8.59703H158.432V10.1818H156.848Z" fill="#101010"/>
<path d="M169.562 10.4062C168.795 10.4062 168.127 10.2613 167.557 9.97143C166.986 9.68159 166.533 9.28423 166.196 8.77935C165.869 8.26511 165.677 7.67141 165.621 6.99823L166.883 6.91409C166.949 7.40962 167.094 7.83035 167.318 8.17629C167.543 8.52223 167.842 8.78402 168.216 8.96167C168.599 9.13931 169.057 9.22813 169.59 9.22813C170.058 9.22813 170.455 9.16736 170.782 9.04581C171.11 8.92427 171.357 8.74662 171.526 8.51288C171.703 8.27914 171.792 7.99397 171.792 7.65739C171.792 7.34885 171.717 7.07771 171.568 6.84396C171.427 6.60087 171.152 6.38116 170.74 6.18481C170.338 5.97912 169.74 5.7781 168.945 5.58176C168.178 5.38541 167.566 5.17037 167.108 4.93663C166.659 4.70289 166.332 4.41772 166.126 4.08113C165.93 3.74455 165.832 3.32849 165.832 2.83295C165.832 2.27197 165.963 1.78111 166.224 1.36038C166.495 0.930294 166.879 0.59838 167.374 0.364638C167.87 0.121547 168.459 1.3136e-06 169.141 1.3136e-06C169.871 1.3136e-06 170.497 0.140246 171.021 0.420736C171.544 0.691877 171.96 1.06586 172.269 1.5427C172.577 2.01953 172.769 2.56181 172.844 3.16954L171.582 3.25369C171.526 2.85165 171.395 2.49636 171.189 2.18782C170.993 1.86994 170.722 1.62217 170.376 1.44453C170.03 1.26688 169.609 1.17806 169.113 1.17806C168.496 1.17806 168.005 1.32766 167.641 1.62684C167.276 1.91668 167.094 2.30002 167.094 2.77686C167.094 3.08539 167.164 3.34251 167.304 3.5482C167.454 3.74455 167.716 3.92219 168.09 4.08113C168.464 4.23073 169.001 4.39435 169.702 4.57199C170.535 4.77769 171.194 5.02545 171.68 5.31529C172.175 5.59578 172.526 5.92302 172.732 6.29701C172.947 6.67099 173.054 7.09641 173.054 7.57324C173.054 8.15292 172.905 8.6578 172.605 9.08789C172.306 9.50862 171.895 9.83586 171.371 10.0696C170.848 10.294 170.245 10.4062 169.562 10.4062ZM174.611 10.1818V2.74881H175.789V10.1818H174.611ZM174.583 1.58477V0.210369H175.817V1.58477H174.583ZM180.576 12.4538C180.043 12.4538 179.562 12.3649 179.132 12.1873C178.702 12.0097 178.342 11.7572 178.052 11.43C177.762 11.1027 177.566 10.7241 177.463 10.294L178.697 10.2098C178.809 10.5558 179.006 10.8269 179.286 11.0233C179.576 11.229 180.006 11.3318 180.576 11.3318C181.249 11.3318 181.764 11.1962 182.119 10.9251C182.484 10.654 182.666 10.2472 182.666 9.70496V8.49886C182.488 8.89154 182.203 9.20476 181.81 9.4385C181.418 9.67224 180.978 9.78911 180.492 9.78911C179.866 9.78911 179.305 9.63484 178.809 9.3263C178.323 9.01776 177.94 8.59235 177.659 8.05007C177.388 7.50779 177.253 6.88604 177.253 6.18481C177.253 5.47424 177.388 4.85248 177.659 4.31955C177.93 3.77727 178.304 3.35186 178.781 3.04332C179.267 2.73478 179.819 2.58051 180.436 2.58051C180.96 2.58051 181.427 2.70206 181.839 2.94515C182.259 3.18824 182.554 3.51548 182.722 3.92687V2.74881H183.844V9.67692C183.844 10.2566 183.713 10.7521 183.451 11.1635C183.19 11.5842 182.816 11.9021 182.329 12.1172C181.843 12.3416 181.259 12.4538 180.576 12.4538ZM180.548 8.66715C181.184 8.66715 181.694 8.44743 182.077 8.008C182.46 7.55921 182.657 6.95149 182.666 6.18481C182.675 5.67058 182.591 5.23114 182.414 4.86651C182.245 4.49252 181.997 4.20736 181.67 4.01101C181.352 3.80532 180.978 3.70247 180.548 3.70247C179.894 3.70247 179.384 3.92686 179.02 4.37565C178.664 4.81508 178.487 5.41814 178.487 6.18481C178.487 6.95149 178.669 7.55921 179.034 8.008C179.408 8.44743 179.912 8.66715 180.548 8.66715ZM185.944 10.1818V2.74881H187.024L187.066 4.64212L186.926 4.51589C187.019 4.07646 187.183 3.7165 187.417 3.43601C187.651 3.14617 187.931 2.93112 188.258 2.79088C188.595 2.65063 188.955 2.58051 189.338 2.58051C189.908 2.58051 190.376 2.70673 190.741 2.95917C191.115 3.21161 191.39 3.55288 191.568 3.98296C191.755 4.4037 191.849 4.87586 191.849 5.39944V10.1818H190.67V5.73603C190.67 5.27789 190.614 4.89456 190.502 4.58602C190.399 4.26813 190.231 4.02971 189.997 3.87077C189.764 3.70247 189.46 3.61833 189.086 3.61833C188.515 3.61833 188.043 3.80064 187.669 4.16528C187.305 4.52057 187.122 5.04415 187.122 5.73603V10.1818H185.944ZM197.487 10.1818V0.224393H198.693V10.1818H197.487ZM201.096 10.1818V2.74881H202.175L202.218 4.64212L202.077 4.51589C202.171 4.07646 202.334 3.7165 202.568 3.43601C202.802 3.14617 203.082 2.93112 203.41 2.79088C203.746 2.65063 204.106 2.58051 204.49 2.58051C205.06 2.58051 205.527 2.70673 205.892 2.95917C206.266 3.21161 206.542 3.55288 206.719 3.98296C206.906 4.4037 207 4.87586 207 5.39944V10.1818H205.822V5.73603C205.822 5.27789 205.766 4.89456 205.654 4.58602C205.551 4.26813 205.382 4.02971 205.149 3.87077C204.915 3.70247 204.611 3.61833 204.237 3.61833C203.667 3.61833 203.195 3.80064 202.821 4.16528C202.456 4.52057 202.274 5.04415 202.274 5.73603V10.1818H201.096Z" fill="#AC63E6"/>
</svg>
