<svg width="21" height="21" viewBox="0 0 21 21" fill="none" xmlns="http://www.w3.org/2000/svg">
<path d="M9.45021 10.5L12.8627 13.9125C13.0231 14.0729 13.1033 14.2771 13.1033 14.525C13.1033 14.7729 13.0231 14.9771 12.8627 15.1375C12.7023 15.2979 12.4981 15.3781 12.2502 15.3781C12.0023 15.3781 11.7981 15.2979 11.6377 15.1375L7.61271 11.1125C7.52521 11.025 7.46338 10.9302 7.42721 10.8281C7.39104 10.7261 7.37267 10.6167 7.37208 10.5C7.3715 10.3833 7.38988 10.274 7.42721 10.1719C7.46454 10.0698 7.52638 9.97501 7.61271 9.88751L11.6377 5.86251C11.7981 5.7021 12.0023 5.62189 12.2502 5.62189C12.4981 5.62189 12.7023 5.7021 12.8627 5.86251C13.0231 6.02293 13.1033 6.2271 13.1033 6.47501C13.1033 6.72293 13.0231 6.9271 12.8627 7.08751L9.45021 10.5Z" fill="#CCCCCC" fill-opacity="0.5"/>
</svg>
