<svg width="18" height="18" viewBox="0 0 18 18" fill="none" xmlns="http://www.w3.org/2000/svg">
<path d="M9 4.52247V14.2725M9 4.52247C6.88575 3.89922 5.46375 3.71547 2.97825 3.75522C2.78342 3.75896 2.59787 3.83914 2.46163 3.97847C2.32538 4.1178 2.24938 4.3051 2.25 4.49997V12.75C2.25 13.1722 2.5995 13.5105 3.0225 13.5052C5.364 13.473 6.786 13.6642 9 14.2725M9 4.52247C11.1143 3.89922 12.5363 3.71547 15.0218 3.75522C15.2166 3.75896 15.4021 3.83914 15.5384 3.97847C15.6746 4.1178 15.7506 4.3051 15.75 4.49997V12.75C15.75 13.1722 15.4005 13.5105 14.9775 13.5052C12.636 13.473 11.214 13.6642 9 14.2725" stroke="#CCCCCC" stroke-width="2" stroke-linecap="round" stroke-linejoin="round"/>
</svg>
