<svg width="36" height="36" viewBox="0 0 36 36" fill="none" xmlns="http://www.w3.org/2000/svg">
<rect x="0.5" y="0.5" width="35" height="35" rx="17.5" fill="#1D152D"/>
<rect x="0.5" y="0.5" width="35" height="35" rx="17.5" stroke="#1D152D"/>
<path d="M18 12.03V25.03M18 12.03C15.181 11.199 13.285 10.954 9.97101 11.007C9.71123 11.012 9.46382 11.1189 9.28217 11.3047C9.10051 11.4904 8.99917 11.7402 9.00001 12V23C9.00001 23.563 9.46601 24.014 10.03 24.007C13.152 23.964 15.048 24.219 18 25.03M18 12.03C20.819 11.199 22.715 10.954 26.029 11.007C26.2888 11.012 26.5362 11.1189 26.7178 11.3047C26.8995 11.4904 27.0008 11.7402 27 12V23C27 23.563 26.534 24.014 25.97 24.007C22.848 23.964 20.952 24.219 18 25.03" stroke="#7C3AED" stroke-width="2" stroke-linecap="round" stroke-linejoin="round"/>
</svg>
