<svg width="36" height="36" viewBox="0 0 36 36" fill="none" xmlns="http://www.w3.org/2000/svg">
<rect x="0.5" y="0.5" width="35" height="35" rx="17.5" fill="#19202E"/>
<rect x="0.5" y="0.5" width="35" height="35" rx="17.5" stroke="#19202E"/>
<path d="M19.07 16.41C19.6774 15.5613 20.0041 14.5437 20.0041 13.5C20.0041 12.4563 19.6774 11.4387 19.07 10.59C19.6388 10.2025 20.3118 9.99681 21 10C21.9283 10 22.8185 10.3688 23.4749 11.0251C24.1313 11.6815 24.5 12.5717 24.5 13.5C24.5 14.4283 24.1313 15.3185 23.4749 15.9749C22.8185 16.6313 21.9283 17 21 17C20.3118 17.0032 19.6388 16.7975 19.07 16.41ZM11.5 13.5C11.5 12.8078 11.7053 12.1311 12.0899 11.5555C12.4744 10.9799 13.0211 10.5313 13.6606 10.2664C14.3001 10.0015 15.0039 9.93221 15.6828 10.0673C16.3617 10.2023 16.9854 10.5356 17.4749 11.0251C17.9644 11.5146 18.2977 12.1383 18.4327 12.8172C18.5678 13.4961 18.4985 14.1999 18.2336 14.8394C17.9687 15.4789 17.5201 16.0256 16.9445 16.4102C16.3689 16.7947 15.6922 17 15 17C14.0717 17 13.1815 16.6313 12.5251 15.9749C11.8687 15.3185 11.5 14.4283 11.5 13.5ZM13.5 13.5C13.5 13.7967 13.588 14.0867 13.7528 14.3334C13.9176 14.58 14.1519 14.7723 14.426 14.8858C14.7001 14.9994 15.0017 15.0291 15.2926 14.9712C15.5836 14.9133 15.8509 14.7704 16.0607 14.5607C16.2704 14.3509 16.4133 14.0836 16.4712 13.7926C16.5291 13.5017 16.4994 13.2001 16.3858 12.926C16.2723 12.6519 16.08 12.4176 15.8334 12.2528C15.5867 12.088 15.2967 12 15 12C14.6022 12 14.2206 12.158 13.9393 12.4393C13.658 12.7207 13.5 13.1022 13.5 13.5ZM22 23V25H8V23C8 23 8 19 15 19C22 19 22 23 22 23ZM20 23C19.86 22.22 18.67 21 15 21C11.33 21 10.07 22.31 10 23M21.95 19C22.5629 19.4767 23.064 20.0819 23.4182 20.7729C23.7723 21.4639 23.9709 22.2241 24 23V25H28V23C28 23 28 19.37 21.94 19H21.95Z" fill="#3B82F6"/>
</svg>
