<svg width="22" height="22" viewBox="0 0 22 22" fill="none" xmlns="http://www.w3.org/2000/svg">
<path d="M11.5502 11L7.97523 7.425C7.80717 7.25695 7.72314 7.04306 7.72314 6.78334C7.72314 6.52362 7.80717 6.30973 7.97523 6.14167C8.14328 5.97361 8.35717 5.88959 8.61689 5.88959C8.87662 5.88959 9.09051 5.97361 9.25856 6.14167L13.4752 10.3583C13.5669 10.45 13.632 10.5493 13.6705 10.6563C13.709 10.7632 13.7279 10.8778 13.7273 11C13.7267 11.1222 13.7078 11.2368 13.6705 11.3438C13.6332 11.4507 13.5681 11.55 13.4752 11.6417L9.25856 15.8583C9.09051 16.0264 8.87662 16.1104 8.61689 16.1104C8.35717 16.1104 8.14328 16.0264 7.97523 15.8583C7.80717 15.6903 7.72314 15.4764 7.72314 15.2167C7.72314 14.9569 7.80717 14.7431 7.97523 14.575L11.5502 11Z" fill="white"/>
</svg>
