<svg width="22" height="22" viewBox="0 0 22 22" fill="none" xmlns="http://www.w3.org/2000/svg">
<path d="M13.6948 17.875L10.9998 16.2891L8.30485 17.875L9.01985 14.8133L6.64568 12.76L9.77151 12.4941L10.9998 9.62498L12.2282 12.4941L15.354 12.76L12.9798 14.8133M18.3332 1.83331H3.66651V3.66665L8.12151 7.00331C6.56722 7.6666 5.28971 8.84634 4.50502 10.343C3.72034 11.8397 3.47664 13.5614 3.81514 15.2171C4.15365 16.8728 5.05358 18.3607 6.36274 19.4293C7.6719 20.4979 9.30995 21.0815 10.9998 21.0815C12.6898 21.0815 14.3278 20.4979 15.637 19.4293C16.9461 18.3607 17.846 16.8728 18.1846 15.2171C18.5231 13.5614 18.2794 11.8397 17.4947 10.343C16.71 8.84634 15.4325 7.6666 13.8782 7.00331L18.3332 3.66665M16.4998 13.75C16.5003 14.7916 16.2051 15.8119 15.6483 16.6922C15.0916 17.5725 14.2964 18.2767 13.3552 18.7227C12.4139 19.1688 11.3654 19.3384 10.3315 19.2118C9.29762 19.0852 8.32095 18.6677 7.5151 18.0077C6.70926 17.3478 6.10738 16.4726 5.77949 15.484C5.45159 14.4954 5.41117 13.4339 5.66291 12.4232C5.91466 11.4125 6.44823 10.4941 7.20154 9.77477C7.95485 9.05545 8.89694 8.56483 9.91818 8.35998C10.6319 8.21429 11.3678 8.21429 12.0815 8.35998C13.3272 8.60984 14.448 9.28326 15.2534 10.2658C16.0588 11.2484 16.4993 12.4795 16.4998 13.75ZM11.5773 6.41665H10.4223L6.75568 3.66665H15.3173L11.5773 6.41665Z" fill="#F47400"/>
</svg>
