<svg width="16" height="16" viewBox="0 0 16 16" fill="none" xmlns="http://www.w3.org/2000/svg">
<path d="M8.7135 6.94001C9.11846 6.37419 9.3362 5.69582 9.3362 5.00001C9.3362 4.30421 9.11846 3.62584 8.7135 3.06001C9.09269 2.8017 9.54135 2.66455 10.0002 2.66668C10.619 2.66668 11.2125 2.91251 11.6501 3.3501C12.0877 3.78768 12.3335 4.38118 12.3335 5.00001C12.3335 5.61885 12.0877 6.21235 11.6501 6.64993C11.2125 7.08751 10.619 7.33335 10.0002 7.33335C9.54135 7.33548 9.09269 7.19833 8.7135 6.94001ZM3.66683 5.00001C3.66683 4.53852 3.80368 4.0874 4.06007 3.70368C4.31646 3.31997 4.68087 3.0209 5.10723 2.8443C5.5336 2.66769 6.00275 2.62148 6.45537 2.71152C6.908 2.80155 7.32376 3.02378 7.65008 3.3501C7.9764 3.67642 8.19863 4.09218 8.28866 4.5448C8.37869 4.99743 8.33249 5.46658 8.15588 5.89294C7.97928 6.3193 7.68021 6.68372 7.29649 6.94011C6.91278 7.1965 6.46165 7.33335 6.00016 7.33335C5.38132 7.33335 4.78783 7.08751 4.35025 6.64993C3.91266 6.21235 3.66683 5.61885 3.66683 5.00001ZM5.00016 5.00001C5.00016 5.1978 5.05881 5.39114 5.16869 5.55558C5.27857 5.72003 5.43475 5.84821 5.61748 5.92389C5.80021 5.99958 6.00127 6.01939 6.19525 5.9808C6.38923 5.94221 6.56742 5.84697 6.70727 5.70712C6.84712 5.56727 6.94236 5.38909 6.98095 5.1951C7.01953 5.00112 6.99973 4.80006 6.92404 4.61733C6.84835 4.4346 6.72018 4.27843 6.55573 4.16854C6.39128 4.05866 6.19794 4.00001 6.00016 4.00001C5.73495 4.00001 5.48059 4.10537 5.29306 4.29291C5.10552 4.48044 5.00016 4.7348 5.00016 5.00001ZM10.6668 11.3333V12.6667H1.3335V11.3333C1.3335 11.3333 1.3335 8.66668 6.00016 8.66668C10.6668 8.66668 10.6668 11.3333 10.6668 11.3333ZM9.3335 11.3333C9.24016 10.8133 8.44683 10 6.00016 10C3.5535 10 2.7135 10.8733 2.66683 11.3333M10.6335 8.66668C11.0421 8.9845 11.3762 9.38792 11.6123 9.8486C11.8484 10.3093 11.9808 10.8161 12.0002 11.3333V12.6667H14.6668V11.3333C14.6668 11.3333 14.6668 8.91335 10.6268 8.66668H10.6335Z" fill="#CCCCCC"/>
</svg>
