<svg width="15" height="15" viewBox="0 0 15 15" fill="none" xmlns="http://www.w3.org/2000/svg">
<path d="M7.5 3.7688V11.8938M7.5 3.7688C5.73813 3.24942 4.55313 3.0963 2.48188 3.12942C2.31952 3.13254 2.16489 3.19936 2.05135 3.31546C1.93782 3.43157 1.87448 3.58766 1.875 3.75005V10.625C1.875 10.9769 2.16625 11.2588 2.51875 11.2544C4.47 11.2275 5.655 11.3869 7.5 11.8938M7.5 3.7688C9.26188 3.24942 10.4469 3.0963 12.5181 3.12942C12.6805 3.13254 12.8351 3.19936 12.9487 3.31546C13.0622 3.43157 13.1255 3.58766 13.125 3.75005V10.625C13.125 10.9769 12.8338 11.2588 12.4813 11.2544C10.53 11.2275 9.345 11.3869 7.5 11.8938" stroke="#CCCCCC" stroke-width="1.25" stroke-linecap="round" stroke-linejoin="round"/>
</svg>
