<svg width="40" height="40" viewBox="0 0 40 40" fill="none" xmlns="http://www.w3.org/2000/svg">
<rect x="0.5" y="0.5" width="39" height="39" rx="9.5" stroke="white" stroke-opacity="0.101961"/>
<path d="M18.7998 20L22.6998 23.9C22.8832 24.0834 22.9748 24.3167 22.9748 24.6C22.9748 24.8834 22.8832 25.1167 22.6998 25.3C22.5165 25.4834 22.2832 25.575 21.9998 25.575C21.7165 25.575 21.4832 25.4834 21.2998 25.3L16.6998 20.7C16.5998 20.6 16.5292 20.4917 16.4878 20.375C16.4465 20.2584 16.4255 20.1334 16.4248 20C16.4242 19.8667 16.4452 19.7417 16.4878 19.625C16.5305 19.5084 16.6012 19.4 16.6998 19.3L21.2998 14.7C21.4832 14.5167 21.7165 14.425 21.9998 14.425C22.2832 14.425 22.5165 14.5167 22.6998 14.7C22.8832 14.8834 22.9748 15.1167 22.9748 15.4C22.9748 15.6834 22.8832 15.9167 22.6998 16.1L18.7998 20Z" fill="white"/>
</svg>
