<svg width="36" height="36" viewBox="0 0 36 36" fill="none" xmlns="http://www.w3.org/2000/svg">
<rect x="0.5" y="0.5" width="35" height="35" rx="17.5" fill="#16271F"/>
<rect x="0.5" y="0.5" width="35" height="35" rx="17.5" stroke="#16271F"/>
<path d="M22 9C22.2449 9.00003 22.4813 9.08996 22.6644 9.25272C22.8474 9.41547 22.9643 9.63975 22.993 9.883L23 10V11H25C25.5046 10.9998 25.9906 11.1904 26.3605 11.5335C26.7305 11.8766 26.9572 12.3468 26.995 12.85L27 13V25C27.0002 25.5046 26.8096 25.9906 26.4665 26.3605C26.1234 26.7305 25.6532 26.9572 25.15 26.995L25 27H11C10.4954 27.0002 10.0094 26.8096 9.63945 26.4665C9.26947 26.1234 9.04284 25.6532 9.005 25.15L9 25V13C8.99984 12.4954 9.19041 12.0094 9.5335 11.6395C9.87659 11.2695 10.3468 11.0428 10.85 11.005L11 11H13V10C13.0003 9.74512 13.0979 9.49997 13.2728 9.31463C13.4478 9.1293 13.687 9.01777 13.9414 9.00283C14.1958 8.98789 14.4464 9.07067 14.6418 9.23426C14.8373 9.39786 14.9629 9.6299 14.993 9.883L15 10V11H21V10C21 9.73478 21.1054 9.48043 21.2929 9.29289C21.4804 9.10536 21.7348 9 22 9ZM25 18H11V25H25V18ZM25 13H11V16H25V13Z" fill="#16A34A"/>
</svg>
