<svg width="44" height="44" viewBox="0 0 44 44" fill="none" xmlns="http://www.w3.org/2000/svg">
<rect x="0.5" y="0.5" width="43" height="43" rx="21.5" fill="#221A32"/>
<rect x="0.5" y="0.5" width="43" height="43" rx="21.5" stroke="#221A32"/>
<path d="M22 16.5276V28.4442M22 16.5276C19.4159 15.7658 17.6779 15.5412 14.6401 15.5898C14.402 15.5944 14.1752 15.6924 14.0087 15.8627C13.8421 16.033 13.7492 16.2619 13.75 16.5001V26.5834C13.75 27.0995 14.1772 27.5129 14.6942 27.5065C17.556 27.4671 19.294 27.7008 22 28.4442M22 16.5276C24.5841 15.7658 26.3221 15.5412 29.3599 15.5898C29.5981 15.5944 29.8248 15.6924 29.9914 15.8627C30.1579 16.033 30.2508 16.2619 30.25 16.5001V26.5834C30.25 27.0995 29.8228 27.5129 29.3058 27.5065C26.444 27.4671 24.706 27.7008 22 28.4442" stroke="#7C3AED" stroke-width="2" stroke-linecap="round" stroke-linejoin="round"/>
</svg>
