<svg width="20" height="20" viewBox="0 0 20 20" fill="none" xmlns="http://www.w3.org/2000/svg">
<path d="M14.1665 18.3333C13.4721 18.3333 12.8818 18.0902 12.3957 17.6041C11.9096 17.118 11.6665 16.5277 11.6665 15.8333C11.6665 15.75 11.6873 15.5555 11.729 15.25L5.87484 11.8333C5.65262 12.0416 5.39567 12.205 5.104 12.3233C4.81234 12.4416 4.49984 12.5005 4.1665 12.5C3.47206 12.5 2.88178 12.2569 2.39567 11.7708C1.90956 11.2847 1.6665 10.6944 1.6665 9.99996C1.6665 9.30551 1.90956 8.71524 2.39567 8.22913C2.88178 7.74301 3.47206 7.49996 4.1665 7.49996C4.49984 7.49996 4.81234 7.55913 5.104 7.67746C5.39567 7.79579 5.65262 7.95885 5.87484 8.16663L11.729 4.74996C11.7012 4.65274 11.684 4.55913 11.6773 4.46913C11.6707 4.37913 11.6671 4.27829 11.6665 4.16663C11.6665 3.47218 11.9096 2.8819 12.3957 2.39579C12.8818 1.90968 13.4721 1.66663 14.1665 1.66663C14.8609 1.66663 15.4512 1.90968 15.9373 2.39579C16.4234 2.8819 16.6665 3.47218 16.6665 4.16663C16.6665 4.86107 16.4234 5.45135 15.9373 5.93746C15.4512 6.42357 14.8609 6.66663 14.1665 6.66663C13.8332 6.66663 13.5207 6.60746 13.229 6.48913C12.9373 6.37079 12.6804 6.20774 12.4582 5.99996L6.604 9.41663C6.63178 9.51385 6.64928 9.60774 6.6565 9.69829C6.66373 9.78885 6.66706 9.8894 6.6665 9.99996C6.66595 10.1105 6.66261 10.2113 6.6565 10.3025C6.65039 10.3936 6.63289 10.4872 6.604 10.5833L12.4582 14C12.6804 13.7916 12.9373 13.6286 13.229 13.5108C13.5207 13.393 13.8332 13.3338 14.1665 13.3333C14.8609 13.3333 15.4512 13.5763 15.9373 14.0625C16.4234 14.5486 16.6665 15.1388 16.6665 15.8333C16.6665 16.5277 16.4234 17.118 15.9373 17.6041C15.4512 18.0902 14.8609 18.3333 14.1665 18.3333ZM14.1665 16.6666C14.4026 16.6666 14.6007 16.5869 14.7607 16.4275C14.9207 16.268 15.0004 16.07 14.9998 15.8333C14.9993 15.5966 14.9193 15.3988 14.7598 15.24C14.6004 15.0811 14.4026 15.0011 14.1665 15C13.9304 14.9988 13.7326 15.0788 13.5732 15.24C13.4137 15.4011 13.3337 15.5988 13.3332 15.8333C13.3326 16.0677 13.4126 16.2658 13.5732 16.4275C13.7337 16.5891 13.9315 16.6688 14.1665 16.6666ZM4.1665 10.8333C4.40261 10.8333 4.60067 10.7533 4.76067 10.5933C4.92067 10.4333 5.00039 10.2355 4.99984 9.99996C4.99928 9.7644 4.91928 9.56663 4.75984 9.40663C4.60039 9.24663 4.40261 9.16663 4.1665 9.16663C3.93039 9.16663 3.73261 9.24663 3.57317 9.40663C3.41373 9.56663 3.33373 9.7644 3.33317 9.99996C3.33262 10.2355 3.41262 10.4336 3.57317 10.5941C3.73373 10.7547 3.9315 10.8344 4.1665 10.8333ZM14.1665 4.99996C14.4026 4.99996 14.6007 4.91996 14.7607 4.75996C14.9207 4.59996 15.0004 4.40218 14.9998 4.16663C14.9993 3.93107 14.9193 3.73329 14.7598 3.57329C14.6004 3.41329 14.4026 3.33329 14.1665 3.33329C13.9304 3.33329 13.7326 3.41329 13.5732 3.57329C13.4137 3.73329 13.3337 3.93107 13.3332 4.16663C13.3326 4.40218 13.4126 4.60024 13.5732 4.76079C13.7337 4.92135 13.9315 5.00107 14.1665 4.99996Z" fill="white"/>
</svg>
