<svg width="15" height="15" viewBox="0 0 15 15" fill="none" xmlns="http://www.w3.org/2000/svg">
<path d="M8.16875 6.50627C8.5484 5.97581 8.75253 5.33984 8.75253 4.68752C8.75253 4.0352 8.5484 3.39923 8.16875 2.86877C8.52424 2.6266 8.94486 2.49802 9.375 2.50002C9.95516 2.50002 10.5116 2.73049 10.9218 3.14073C11.332 3.55096 11.5625 4.10736 11.5625 4.68752C11.5625 5.26768 11.332 5.82408 10.9218 6.23432C10.5116 6.64455 9.95516 6.87502 9.375 6.87502C8.94486 6.87702 8.52424 6.74844 8.16875 6.50627ZM3.4375 4.68752C3.4375 4.25488 3.56579 3.83195 3.80616 3.47221C4.04653 3.11248 4.38817 2.8321 4.78788 2.66654C5.18759 2.50097 5.62743 2.45765 6.05176 2.54206C6.47609 2.62646 6.86587 2.8348 7.1718 3.14073C7.47772 3.44665 7.68606 3.83643 7.77047 4.26076C7.85487 4.6851 7.81155 5.12493 7.64599 5.52464C7.48042 5.92436 7.20004 6.266 6.84031 6.50636C6.48058 6.74673 6.05765 6.87502 5.625 6.87502C5.04484 6.87502 4.48844 6.64455 4.0782 6.23432C3.66797 5.82408 3.4375 5.26768 3.4375 4.68752ZM4.6875 4.68752C4.6875 4.87294 4.74248 5.0542 4.8455 5.20837C4.94851 5.36254 5.09493 5.4827 5.26623 5.55366C5.43754 5.62462 5.62604 5.64318 5.8079 5.60701C5.98975 5.57084 6.1568 5.48155 6.28791 5.35044C6.41902 5.21932 6.50831 5.05228 6.54449 4.87042C6.58066 4.68856 6.56209 4.50006 6.49114 4.32876C6.42018 4.15745 6.30002 4.01103 6.14585 3.90802C5.99168 3.80501 5.81042 3.75002 5.625 3.75002C5.37636 3.75002 5.1379 3.84879 4.96209 4.02461C4.78627 4.20043 4.6875 4.43888 4.6875 4.68752ZM10 10.625V11.875H1.25V10.625C1.25 10.625 1.25 8.12502 5.625 8.12502C10 8.12502 10 10.625 10 10.625ZM8.75 10.625C8.6625 10.1375 7.91875 9.37502 5.625 9.37502C3.33125 9.37502 2.54375 10.1938 2.5 10.625M9.96875 8.12502C10.3518 8.42298 10.665 8.80118 10.8864 9.23307C11.1077 9.66496 11.2318 10.1401 11.25 10.625V11.875H13.75V10.625C13.75 10.625 13.75 8.35627 9.9625 8.12502H9.96875Z" fill="#CCCCCC"/>
</svg>
