<svg width="21" height="21" viewBox="0 0 21 21" fill="none" xmlns="http://www.w3.org/2000/svg">
<path d="M7.875 10.5C7.875 11.0802 7.64453 11.6366 7.2343 12.0468C6.82406 12.457 6.26766 12.6875 5.6875 12.6875C5.10734 12.6875 4.55094 12.457 4.1407 12.0468C3.73047 11.6366 3.5 11.0802 3.5 10.5C3.5 9.91984 3.73047 9.36344 4.1407 8.9532C4.55094 8.54297 5.10734 8.3125 5.6875 8.3125C6.26766 8.3125 6.82406 8.54297 7.2343 8.9532C7.64453 9.36344 7.875 9.91984 7.875 10.5Z" stroke="white" stroke-width="1.5"/>
<path d="M12.25 5.6875L7.875 8.75M12.25 15.3125L7.875 12.25" stroke="white" stroke-width="1.5" stroke-linecap="round"/>
<path d="M16.625 16.1875C16.625 16.7677 16.3945 17.3241 15.9843 17.7343C15.5741 18.1445 15.0177 18.375 14.4375 18.375C13.8573 18.375 13.3009 18.1445 12.8907 17.7343C12.4805 17.3241 12.25 16.7677 12.25 16.1875C12.25 15.6073 12.4805 15.0509 12.8907 14.6407C13.3009 14.2305 13.8573 14 14.4375 14C15.0177 14 15.5741 14.2305 15.9843 14.6407C16.3945 15.0509 16.625 15.6073 16.625 16.1875ZM16.625 4.8125C16.625 5.39266 16.3945 5.94906 15.9843 6.3593C15.5741 6.76953 15.0177 7 14.4375 7C13.8573 7 13.3009 6.76953 12.8907 6.3593C12.4805 5.94906 12.25 5.39266 12.25 4.8125C12.25 4.23234 12.4805 3.67594 12.8907 3.2657C13.3009 2.85547 13.8573 2.625 14.4375 2.625C15.0177 2.625 15.5741 2.85547 15.9843 3.2657C16.3945 3.67594 16.625 4.23234 16.625 4.8125Z" stroke="white" stroke-width="1.5"/>
</svg>
